<svg width="24.000000" height="24.000000" viewBox="0 0 24 24" fill="none" xmlns="http://www.w3.org/2000/svg" xmlns:xlink="http://www.w3.org/1999/xlink">
	<desc>
			Created with Pixso.
	</desc>
	<defs>
		<clipPath id="clip18_229">
			<rect id="icon/shopping-cart" width="24.000000" height="24.000000" fill="white" fill-opacity="0"/>
		</clipPath>
	</defs>
	<rect id="icon/shopping-cart" width="24.000000" height="24.000000" fill="#FFFFFF" fill-opacity="0"/>
	<g clip-path="url(#clip18_229)">
		<path id="Vector" d="M22.28 5L20.57 15.28L6.85 15.28L5.14 5L22.28 5Z" stroke="#9586A8" stroke-opacity="1.000000" stroke-width="1.500000" stroke-linejoin="round"/>
		<path id="Vector" d="M8.57 21C7.94 21 7.42 20.48 7.42 19.85C7.42 19.22 7.94 18.71 8.57 18.71C9.2 18.71 9.71 19.22 9.71 19.85C9.71 20.48 9.2 21 8.57 21Z" stroke="#9586A8" stroke-opacity="1.000000" stroke-width="1.500000" stroke-linejoin="round"/>
		<path id="Vector" d="M18.85 21C18.22 21 17.71 20.48 17.71 19.85C17.71 19.22 18.22 18.71 18.85 18.71C19.48 18.71 20 19.22 20 19.85C20 20.48 19.48 21 18.85 21Z" stroke="#9586A8" stroke-opacity="1.000000" stroke-width="1.500000" stroke-linejoin="round"/>
		<path id="Vector" d="M5.14 5L1.71 5" stroke="#9586A8" stroke-opacity="1.000000" stroke-width="1.500000" stroke-linejoin="round" stroke-linecap="round"/>
	</g>
</svg>
